<svg width="115" height="115" viewBox="0 0 115 115" fill="none" xmlns="http://www.w3.org/2000/svg">
<g clip-path="url(#clip0_17226_143055)">
<path d="M68.9527 52.7078L76.6673 60.4224V52.7078H68.9527ZM81.459 33.5411H62.2923V42.6453H81.459C89.6527 42.6453 96.3131 49.3057 96.3131 57.4994C96.3131 63.5849 92.6236 68.8557 87.3527 71.1078L94.0611 77.8161C100.865 73.5994 105.417 66.0765 105.417 57.4994C105.417 44.2744 94.684 33.5411 81.459 33.5411ZM9.58398 20.4599L24.4861 35.3619C15.7652 38.9078 9.58398 47.4849 9.58398 57.4994C9.58398 70.7244 20.3173 81.4578 33.5423 81.4578H52.709V72.3536H33.5423C25.3486 72.3536 18.6882 65.6932 18.6882 57.4994C18.6882 49.8807 24.4861 43.6036 31.9131 42.789L41.8319 52.7078H38.334V62.2911H51.4152L62.2923 73.1682V81.4578H70.5819L89.7965 100.672L96.5527 93.9161L16.3402 13.7036L9.58398 20.4599Z" fill="url(#paint0_linear_17226_143055)"/>
</g>
<defs>
<linearGradient id="paint0_linear_17226_143055" x1="105.417" y1="13.7036" x2="-7.06476" y2="52.9213" gradientUnits="userSpaceOnUse">
<stop stop-color="#00E6D2"/>
<stop offset="0.492188" stop-color="#4F94C3"/>
<stop offset="1" stop-color="#384A91"/>
</linearGradient>
<clipPath id="clip0_17226_143055">
<rect width="115" height="115" fill="white"/>
</clipPath>
</defs>
</svg>
