<svg width="147" height="48" viewBox="0 0 147 48" fill="none" xmlns="http://www.w3.org/2000/svg">
<path d="M41.4072 24.0296C40.7499 22.6392 39.3595 21.7291 37.6657 21.7291C35.3147 21.7291 33.4944 23.5745 33.4944 26.0015C33.4944 28.4284 35.3147 30.2738 37.6657 30.2738C39.3595 30.2738 40.7499 29.3638 41.4072 27.9734L44.0617 28.757C43.0252 31.2598 40.6235 32.903 37.6657 32.903C33.722 32.903 30.7642 29.9452 30.7642 26.0015C30.7642 22.0577 33.722 19.0999 37.6657 19.0999C40.6235 19.0999 43.0252 20.7431 44.0617 23.2459L41.4072 24.0296ZM46.3541 19.4285H48.9833V21.3499C49.5647 20.4651 50.8288 19.0999 53.3062 19.0999H53.6602V22.0324C53.2994 21.8856 52.9118 21.8167 52.5225 21.8302C50.5255 21.8302 48.9833 23.2965 48.9833 25.2431V32.5744H46.3541V19.4285ZM57.4568 26.9621C57.8613 28.9845 59.5804 30.4508 61.805 30.4508C63.246 30.4508 64.5101 29.8188 65.2938 28.8076L67.8724 29.5913C66.6842 31.6137 64.4595 32.903 61.805 32.903C57.7854 32.903 54.7518 29.9452 54.7518 26.0015C54.7518 22.0577 57.7097 19.0999 61.6029 19.0999C65.4708 19.0999 68.4285 22.0577 68.4285 26.0015C68.4285 26.3301 68.4033 26.6334 68.378 26.9621H57.4568ZM61.527 21.5521C59.5804 21.5521 57.9624 22.9172 57.4821 24.8638H65.7235C65.2432 22.9172 63.5999 21.5521 61.527 21.5521V21.5521ZM76.6288 19.0999C78.2582 19.09 79.8271 19.7157 81.0024 20.8443V13.614H83.6316V32.5744H81.0024V31.1587C79.8271 32.2872 78.2581 32.913 76.6288 32.903C72.9379 32.903 70.1571 29.9452 70.1571 26.0015C70.1571 22.0577 72.9379 19.0999 76.6288 19.0999V19.0999ZM72.8873 26.0015C72.8873 28.4284 74.6569 30.2738 76.9069 30.2738C79.1821 30.2738 80.9518 28.4284 80.9518 26.0015C80.9518 23.5745 79.1821 21.7291 76.9069 21.7291C74.6569 21.7291 72.8873 23.5745 72.8873 26.0015V26.0015ZM88.1938 14.4988C88.6564 14.4988 89.1001 14.6826 89.4273 15.0097C89.7544 15.3369 89.9382 15.7806 89.9382 16.2432C89.9382 16.7058 89.7544 17.1495 89.4273 17.4766C89.1001 17.8038 88.6564 17.9875 88.1938 17.9875C87.2079 17.9875 86.4748 17.2292 86.4748 16.2432C86.4748 15.2573 87.2079 14.4988 88.1938 14.4988V14.4988ZM86.8792 19.4285H89.5084V32.5744H86.8792L86.8792 19.4285ZM91.2677 19.4285H93.2649V16.8247H95.8941V19.4285H99.3828V21.7291H95.8941V28.2009C95.8941 29.2627 96.6525 30.0463 97.6637 30.0463H99.3828V32.5744H97.4615C95.0851 32.5744 93.2649 30.8301 93.2649 28.5548V21.7291H91.2677V19.4285ZM108.59 22.8667C108.337 22.0324 107.452 21.4004 106.011 21.4004C104.823 21.4004 103.837 21.906 103.837 22.8162C103.837 23.4229 104.242 23.8273 105.101 24.1307L108.059 25.1419C110.309 25.9762 111.295 27.1391 111.295 28.934C111.295 31.639 108.994 32.903 106.239 32.903C103.18 32.903 101.309 31.4621 100.955 29.2373L103.433 28.8582C103.66 29.8693 104.646 30.6025 106.289 30.6025C107.654 30.6025 108.767 29.9958 108.767 29.0098C108.767 28.3525 108.261 27.8722 107.174 27.493L104.242 26.5071C102.194 25.7992 101.309 24.7375 101.309 23.0184C101.309 20.3134 103.508 19.0999 106.213 19.0999C108.944 19.0999 110.713 20.4145 111.067 22.4369L108.59 22.8667ZM112.581 19.4285H114.578V16.8247H117.207V19.4285H120.696V21.7291H117.207V28.2009C117.207 29.2627 117.966 30.0463 118.977 30.0463H120.696V32.5744H118.775C116.398 32.5744 114.578 30.8301 114.578 28.5548V21.7291H112.581V19.4285ZM128.386 19.0999C130.015 19.09 131.584 19.7157 132.76 20.8443V19.4285H135.389V32.5744H132.76V31.1587C131.584 32.2872 130.015 32.913 128.386 32.903C124.695 32.903 121.914 29.9452 121.914 26.0015C121.914 22.0577 124.695 19.0999 128.386 19.0999ZM124.645 26.0015C124.645 28.4284 126.414 30.2738 128.664 30.2738C130.939 30.2738 132.709 28.4284 132.709 26.0015C132.709 23.5745 130.939 21.7291 128.664 21.7291C126.414 21.7291 124.645 23.5745 124.645 26.0015ZM138.614 19.4285H141.243V21.3499C141.825 20.4651 143.089 19.0999 145.566 19.0999H145.92V22.0324C145.559 21.8856 145.172 21.8167 144.782 21.8302C142.785 21.8302 141.243 23.2965 141.243 25.2431V32.5744H138.614L138.614 19.4285Z" fill="#F6FAFE"/>
<path d="M15.3802 27.7119L7.86646 30.1587C9.47608 32.2676 10.9524 34.2011 10.9524 34.2011L10.9536 34.1993C11.2622 34.6058 11.6897 34.9062 12.1767 35.0589C12.6636 35.2116 13.1861 35.209 13.6715 35.0515C14.3877 34.8189 15.3188 34.1265 15.3788 32.7018L15.3802 27.7119Z" fill="url(#paint0_linear_16353_70061)"/>
<path d="M15.3826 19.9458L15.3841 14.9479C15.382 14.4183 15.2102 13.9032 14.894 13.4783C14.5777 13.0534 14.1336 12.7411 13.6268 12.5871C13.1201 12.433 12.5773 12.4455 12.0781 12.6225C11.5788 12.7996 11.1495 13.1319 10.853 13.5708L7.85864 17.4997L15.3826 19.9458Z" fill="url(#paint1_linear_16353_70061)"/>
<path d="M21.8235 23.8358C21.8232 23.2922 21.6443 22.7638 21.3142 22.332C20.984 21.9002 20.5211 21.5888 19.9967 21.4459L3.24478 15.9999C2.75795 15.8414 2.23395 15.8376 1.74486 15.989C1.25576 16.1404 0.825594 16.4397 0.513503 16.8456C0.201412 17.2514 0.0227301 17.744 0.0020271 18.2556C-0.0186759 18.7672 0.119617 19.2726 0.39789 19.7024L2.2567 22.8419C2.438 23.1354 2.53347 23.4738 2.53231 23.8188C2.53114 24.1638 2.43338 24.5016 2.2501 24.7938L0.429472 27.9266C0.138057 28.3604 -0.00866097 28.8753 0.0103115 29.3975C0.0292841 29.9198 0.212975 30.4227 0.5351 30.8343C0.857225 31.2458 1.30127 31.5449 1.8037 31.6888C2.30613 31.8326 2.84119 31.8139 3.33231 31.6352L20.2019 26.1419C20.6769 25.9715 21.0877 25.6585 21.378 25.2457C21.6683 24.8329 21.8239 24.3404 21.8235 23.8358Z" fill="#00E6D2"/>
<defs>
<linearGradient id="paint0_linear_16353_70061" x1="8.71962" y1="34.8446" x2="16.3718" y2="27.1925" gradientUnits="userSpaceOnUse">
<stop stop-color="#324B96"/>
<stop offset="0.5" stop-color="#3296C8"/>
<stop offset="1" stop-color="#00E6D2"/>
</linearGradient>
<linearGradient id="paint1_linear_16353_70061" x1="5.09118" y1="24.7532" x2="15.1567" y2="14.6877" gradientUnits="userSpaceOnUse">
<stop stop-color="#324B96"/>
<stop offset="0.5" stop-color="#3296C8"/>
<stop offset="1" stop-color="#00E6D2"/>
</linearGradient>
</defs>
</svg>
