<svg width="85" height="34" viewBox="0 0 85 34" fill="none" xmlns="http://www.w3.org/2000/svg">
<path d="M21.5995 8.75342H12.4062V25.2739H21.5995V8.75342Z" fill="#FF5F00"/>
<path d="M12.9864 17.0144C12.985 15.4233 13.3455 13.8528 14.0407 12.4217C14.736 10.9906 15.7477 9.73641 16.9993 8.75412C15.4494 7.53583 13.5879 6.7782 11.6278 6.56782C9.66762 6.35743 7.68782 6.70278 5.91465 7.56439C4.14148 8.426 2.6465 9.76911 1.60058 11.4402C0.55466 13.1113 0 15.0429 0 17.0144C0 18.9858 0.55466 20.9174 1.60058 22.5885C2.6465 24.2596 4.14148 25.6027 5.91465 26.4643C7.68782 27.3259 9.66762 27.6713 11.6278 27.4609C13.5879 27.2505 15.4494 26.4929 16.9993 25.2746C15.7477 24.2923 14.736 23.0381 14.0407 21.607C13.3455 20.1759 12.985 18.6054 12.9864 17.0144Z" fill="#EB001B"/>
<path d="M33.9988 17.0144C33.9988 18.9857 33.4443 20.9174 32.3984 22.5885C31.3525 24.2596 29.8576 25.6027 28.0845 26.4643C26.3113 27.3259 24.3315 27.6713 22.3714 27.4609C20.4113 27.2505 18.5499 26.4929 17 25.2746C18.2505 24.2913 19.2614 23.0369 19.9566 21.6061C20.6517 20.1752 21.0129 18.6051 21.0129 17.0144C21.0129 15.4236 20.6517 13.8535 19.9566 12.4227C19.2614 10.9918 18.2505 9.73741 17 8.75411C18.5499 7.53583 20.4113 6.7782 22.3714 6.56782C24.3315 6.35743 26.3113 6.70279 28.0845 7.56441C29.8576 8.42603 31.3525 9.76914 32.3984 11.4402C33.4443 13.1113 33.9988 15.043 33.9988 17.0144Z" fill="#F79E1B"/>
<path d="M32.9961 23.524V23.1858H33.1325V23.1169H32.7852V23.1858H32.9216V23.524H32.9961ZM33.6704 23.524V23.1162H33.564L33.4415 23.3967L33.319 23.1162H33.2125V23.524H33.2877V23.2164L33.4025 23.4816H33.4805L33.5953 23.2157V23.524H33.6704Z" fill="#F79E1B"/>
<path d="M67.4869 11.6822L65.2154 22.3019H62.4679L64.7397 11.6822H67.4869ZM79.0455 18.5395L80.4915 14.5516L81.3237 18.5395H79.0455ZM82.1119 22.3019H84.6523L82.4329 11.6822H80.0895C79.5614 11.6822 79.1162 11.9884 78.9192 12.4607L74.7968 22.3019H77.6821L78.2549 20.7159H81.7792L82.1119 22.3019ZM74.9399 18.8349C74.9518 16.0322 71.0654 15.877 71.0915 14.6247C71.0998 14.2442 71.4629 13.8388 72.2564 13.7352C72.6497 13.6845 73.7353 13.6435 74.9659 14.2105L75.4472 11.9576C74.7863 11.7185 73.9357 11.4883 72.8774 11.4883C70.1614 11.4883 68.2508 12.931 68.2355 14.9985C68.2181 16.5274 69.6003 17.3798 70.6396 17.8891C71.7111 18.4095 72.07 18.7432 72.0648 19.2082C72.0574 19.9207 71.2104 20.2363 70.4217 20.2482C69.0397 20.2697 68.2386 19.8746 67.6002 19.577L67.1014 21.9051C67.7444 22.1994 68.9291 22.4555 70.1559 22.4686C73.0434 22.4686 74.9313 21.0429 74.9399 18.8349ZM63.5612 11.6822L59.1096 22.3019H56.2059L54.0152 13.8267C53.8824 13.3055 53.7665 13.1139 53.3626 12.8937C52.7019 12.5349 51.6113 12.1993 50.6523 11.9906L50.7173 11.6822H55.3921C55.9876 11.6822 56.5233 12.0785 56.6597 12.7645L57.817 18.9102L60.6749 11.6822H63.5612Z" fill="#1434CB"/>
</svg>
